<?xml version="1.0" standalone="no"?>
<!DOCTYPE svg PUBLIC "-//W3C//DTD SVG 20010904//EN"
 "http://www.w3.org/TR/2001/REC-SVG-20010904/DTD/svg10.dtd">
<svg version="1.0" xmlns="http://www.w3.org/2000/svg"
 width="900.000000pt" height="366.000000pt" viewBox="0 0 900.000000 366.000000"
 preserveAspectRatio="xMidYMid meet">
<metadata>
Created by potrace 1.10, written by Peter Selinger 2001-2011
</metadata>
<g transform="translate(0.000000,366.000000) scale(0.100000,-0.100000)"
fill="#000000" stroke="none">
<path d="M1645 3129 c-4 -5 0 -18 8 -27 33 -38 31 -58 -13 -172 -42 -111 -52
-136 -60 -165 -4 -16 -18 -55 -30 -85 -12 -30 -25 -66 -30 -80 -5 -14 -18 -50
-30 -80 -47 -122 -52 -136 -57 -160 -3 -14 -10 -30 -15 -37 -6 -7 -14 -27 -18
-45 -5 -18 -18 -58 -30 -88 -11 -30 -28 -73 -37 -95 -8 -22 -16 -51 -17 -65
l-1 -25 188 -3 c103 -1 195 2 204 7 15 8 61 117 83 196 5 17 18 55 30 85 12
30 25 69 30 85 5 17 18 55 30 85 12 30 25 69 30 85 4 17 16 48 25 70 l17 40
22 -27 c31 -40 123 -168 251 -353 135 -195 169 -242 188 -257 18 -15 44 -18
158 -18 162 0 166 2 197 100 12 36 31 90 42 120 12 30 25 70 30 88 4 18 12 38
18 45 5 7 12 23 15 37 3 14 15 50 27 80 12 30 32 87 45 125 13 39 34 95 45
125 12 30 26 69 30 85 11 40 33 97 43 113 10 15 193 17 202 2 3 -5 -2 -26 -11
-47 -9 -21 -20 -51 -24 -68 -5 -16 -18 -55 -30 -85 -12 -30 -25 -68 -30 -85
-5 -16 -18 -55 -30 -85 -12 -30 -25 -66 -30 -80 -5 -14 -18 -50 -30 -80 -42
-111 -52 -136 -60 -165 -4 -16 -18 -55 -30 -85 -38 -96 -43 -122 -28 -131 7
-5 419 -9 915 -9 l902 0 88 82 c49 44 121 112 160 151 47 44 78 67 88 64 8 -4
46 -55 84 -114 38 -59 81 -125 96 -145 l26 -38 230 0 c251 0 251 0 210 58 -30
43 -216 326 -220 336 -2 5 -28 44 -57 87 -30 43 -54 86 -53 96 0 10 45 59 100
108 54 50 129 118 166 152 l68 62 163 1 c89 0 162 -3 162 -8 0 -11 -17 -62
-40 -122 -12 -30 -25 -68 -30 -85 -5 -16 -18 -55 -30 -85 -12 -30 -25 -68 -30
-85 -5 -16 -18 -55 -30 -85 -12 -30 -25 -66 -30 -80 -5 -14 -20 -56 -34 -95
-14 -38 -26 -78 -26 -87 0 -10 20 -47 45 -83 25 -36 64 -93 88 -127 24 -35 59
-85 78 -113 39 -57 47 -65 64 -59 11 4 58 128 85 219 4 17 18 55 30 85 41 106
51 135 60 165 4 17 18 55 30 85 41 106 51 135 60 165 4 17 18 55 30 85 12 30
25 69 30 85 18 64 60 174 73 193 7 9 126 12 534 12 l524 0 123 118 c68 64 124
123 125 130 1 9 -233 12 -1140 12 l-1142 0 -131 -127 c-72 -71 -137 -134 -144
-140 -30 -28 -37 -21 -138 137 -44 70 -52 83 -63 108 l-11 22 -1213 0 c-668 0
-1217 -3 -1220 -7 -4 -3 4 -20 16 -37 46 -61 48 -69 26 -127 -11 -30 -24 -65
-29 -79 -5 -14 -18 -50 -30 -80 -12 -30 -25 -66 -30 -80 -8 -24 -33 -90 -60
-155 l-12 -30 -24 30 c-23 28 -65 85 -229 319 -33 47 -86 122 -119 166 l-58
80 -208 0 c-137 0 -211 -4 -215 -11z m3087 -268 c13 -5 39 -34 58 -65 19 -31
54 -87 78 -123 69 -107 70 -104 -49 -213 -56 -52 -116 -108 -132 -125 -17 -16
-44 -40 -61 -52 l-30 -23 -556 0 c-404 0 -559 3 -567 11 -14 14 -6 65 14 94 7
11 13 29 13 40 0 44 7 45 364 45 l339 0 91 74 c135 111 169 143 161 155 -4 8
-138 11 -426 11 -468 0 -431 -7 -403 76 8 25 13 57 10 69 -4 17 -1 25 11 28
34 9 1062 7 1085 -2z"/>
<path d="M1100 1844 c-8 -1 -49 -7 -90 -14 -118 -18 -187 -54 -268 -140 -32
-34 -92 -147 -92 -173 0 -7 -6 -21 -13 -32 -8 -11 -19 -47 -26 -81 -26 -138
42 -242 189 -287 48 -15 99 -17 353 -17 163 1 301 -1 306 -5 18 -10 -29 -129
-54 -139 -9 -3 -203 -6 -430 -6 -363 0 -416 -2 -429 -16 -9 -8 -16 -22 -16
-29 0 -8 -6 -29 -14 -47 -51 -119 -66 -162 -58 -170 5 -5 238 -7 533 -6 552 4
531 2 639 51 57 26 140 109 167 167 73 156 88 203 87 276 -1 56 -6 79 -23 108
-63 101 -133 116 -541 116 -260 0 -301 2 -306 15 -7 17 32 116 50 127 6 4 220
8 476 8 485 0 490 0 490 42 0 28 40 46 95 45 58 -2 66 -17 42 -76 -14 -35 -30
-77 -62 -161 -40 -107 -48 -127 -89 -223 -9 -21 -16 -45 -16 -53 0 -9 -6 -28
-14 -42 -69 -134 -60 -289 21 -348 74 -54 79 -54 562 -54 l448 0 16 40 c10 22
24 59 33 83 9 23 22 57 30 75 8 18 14 41 14 52 0 19 -10 20 -372 22 l-373 3
-3 34 c-2 19 3 48 11 65 8 17 22 50 31 74 57 152 65 173 105 276 17 43 31 84
31 90 0 7 10 22 23 34 23 22 27 22 389 22 352 0 367 1 373 19 11 35 33 44 103
42 36 -1 69 -4 71 -7 3 -3 -1 -19 -8 -37 -7 -18 -17 -45 -21 -62 -9 -30 -19
-59 -60 -165 -12 -30 -25 -68 -30 -85 -5 -16 -18 -55 -30 -85 -12 -30 -25 -68
-30 -85 -5 -16 -18 -55 -30 -85 -11 -30 -32 -86 -45 -125 -13 -38 -33 -94 -44
-124 -11 -30 -18 -58 -15 -62 9 -15 381 -11 391 4 11 17 34 77 40 107 3 14 9
30 13 35 4 6 13 26 18 45 6 19 18 53 26 75 8 22 23 63 34 90 l18 50 51 3 c41
2 56 -1 70 -16 10 -11 74 -106 142 -211 l125 -191 197 0 c123 0 200 4 204 10
4 6 -7 27 -23 48 -16 20 -31 42 -33 47 -2 6 -48 77 -103 159 -76 115 -95 150
-85 157 14 9 77 29 92 29 5 0 23 6 40 14 18 8 39 17 47 20 57 25 147 106 186
168 107 168 79 372 -62 454 -25 15 -81 34 -125 44 -75 17 -180 18 -1707 18
-895 -1 -1634 -2 -1642 -4z m3225 -316 c24 -19 27 -26 22 -62 -4 -31 -14 -47
-38 -66 -49 -38 -117 -49 -302 -50 -185 0 -197 4 -163 60 9 16 16 34 16 41 0
7 7 33 16 56 l17 43 202 0 c192 0 204 -1 230 -22z"/>
<path d="M4909 1813 c-26 -64 -51 -130 -59 -153 -5 -14 -18 -50 -30 -80 -12
-30 -26 -68 -30 -85 -5 -16 -15 -48 -24 -70 -8 -22 -24 -65 -36 -95 -12 -30
-32 -86 -45 -125 -13 -38 -33 -95 -45 -125 -84 -219 -84 -220 -66 -254 9 -17
50 -78 92 -136 41 -58 89 -127 106 -153 46 -72 58 -63 108 83 5 14 18 50 30
80 11 30 32 87 45 125 46 132 84 240 105 295 12 30 32 87 45 125 13 39 33 95
45 125 44 115 52 136 60 165 4 17 18 55 30 85 28 72 70 198 70 210 0 6 -76 10
-195 10 l-195 0 -11 -27z"/>
<path d="M5553 1828 c-10 -16 -31 -72 -43 -113 -9 -30 -62 -180 -94 -265 -10
-25 -21 -58 -26 -75 -4 -16 -18 -55 -30 -85 -40 -105 -51 -135 -60 -165 -8
-29 -18 -55 -60 -165 -12 -30 -25 -66 -30 -80 -5 -14 -18 -50 -30 -80 -13 -30
-25 -70 -27 -87 l-5 -33 194 0 195 0 16 40 c10 22 24 58 32 80 8 22 22 58 30
80 8 22 22 58 30 80 8 22 22 58 30 80 8 22 21 57 29 78 61 165 82 213 92 212
11 -2 33 -42 75 -135 71 -158 82 -182 102 -223 12 -24 24 -45 27 -47 4 -2 121
94 261 215 149 128 258 215 263 209 6 -5 3 -23 -7 -46 -9 -21 -28 -72 -42
-113 -14 -41 -37 -106 -50 -145 -13 -38 -40 -115 -60 -170 -20 -55 -39 -111
-42 -125 -3 -14 -10 -30 -15 -37 -22 -28 6 -33 186 -33 166 0 184 2 189 17 3
10 15 43 27 73 33 87 49 130 75 205 28 80 45 127 75 205 12 30 25 69 30 85 5
17 18 55 30 85 12 30 25 66 30 80 18 53 59 161 65 170 3 6 33 10 66 10 60 0
60 0 57 -27 l-3 -28 287 -5 c157 -3 289 -8 293 -11 3 -4 -32 -39 -77 -79 -46
-40 -105 -94 -133 -120 -27 -25 -81 -73 -120 -105 -38 -33 -92 -80 -120 -106
-27 -25 -88 -80 -135 -120 -47 -41 -94 -82 -105 -92 -11 -10 -72 -64 -137
-120 -64 -56 -113 -105 -109 -110 4 -4 319 -6 700 -5 l692 3 21 50 c11 28 33
81 49 119 16 38 29 75 29 82 0 12 -59 14 -344 14 -190 0 -347 4 -350 9 -3 5
16 28 42 51 26 24 70 64 97 90 28 25 109 100 180 165 72 66 135 124 141 130
77 73 342 323 382 360 103 94 193 85 -821 85 l-894 0 -122 -105 c-67 -58 -130
-110 -140 -117 -10 -7 -44 -36 -77 -64 -186 -162 -215 -185 -230 -182 -10 2
-50 85 -109 221 -52 120 -99 225 -106 233 -16 19 -353 21 -366 2z"/>
</g>
</svg>
